# xmcd
#
# Track frame offsets: 
#        150
#        14302
#        31220
#        46492
#        64420
#        79705
#        96125
#        105227
#        119567
#        135330
#
# Disc length: 2100 seconds
#
# Revision: 4
# Processed by: cddbd v1.5.2PL0 Copyright (c) Steve Scherf et al.
# Submitted via: ExactAudioCopy v1.1
#
DISCID=7908320a
DTITLE=Various Artist - New Country Volume 4 No. 6
DYEAR=1997
DGENRE=Country
TTITLE0=Trace Adkins - I Left Something Turned On At Home
TTITLE1=Lee Ann Womack - Never Again, Again
TTITLE2=The Dead Reckoners - I Desire Fire
TTITLE3=Bob Woodruff - That Was Then
TTITLE4=Chris Thile - Road to Wrigley
TTITLE5=Ray Steven - Too Drunk to Fish
TTITLE6=Rosi Flores And Ray Campi - Separate Ways
TTITLE7=Kim Richey - Why Can't I Say Goodnight
TTITLE8=Chet Atkins with Tommy Emanuel - Smokey Mountain Lullaby
TTITLE9=Roy D. Mercer - Dead Rooster
EXTD=YEAR: 1997
EXTT0=
EXTT1=
EXTT2=
EXTT3=
EXTT4=
EXTT5=
EXTT6=
EXTT7=
EXTT8=
EXTT9=
PLAYORDER=
